<mxfile host="Electron" agent="Mozilla/5.0 (Windows NT 10.0; Win64; x64) AppleWebKit/537.36 (KHTML, like Gecko) draw.io/24.7.5 Chrome/126.0.6478.183 Electron/31.3.0 Safari/537.36" version="24.7.5">
  <diagram name="第 1 页" id="NyUb7pXb7136ecJeQEB_">
    <mxGraphModel dx="650" dy="486" grid="1" gridSize="10" guides="1" tooltips="1" connect="1" arrows="1" fold="1" page="1" pageScale="1" pageWidth="827" pageHeight="1169" math="0" shadow="0">
      <root>
        <mxCell id="0" />
        <mxCell id="1" parent="0" />
        <mxCell id="8TgIeyF4LGr8fta_CmUW-1" value="L1 Index" style="rounded=0;whiteSpace=wrap;html=1;" parent="1" vertex="1">
          <mxGeometry x="90" y="320" width="150" height="40" as="geometry" />
        </mxCell>
        <mxCell id="91s7g8yCsdpw_zOZH4gh-1" value="L2 Index" style="rounded=0;whiteSpace=wrap;html=1;" vertex="1" parent="1">
          <mxGeometry x="250" y="320" width="150" height="40" as="geometry" />
        </mxCell>
        <mxCell id="91s7g8yCsdpw_zOZH4gh-2" value="L3 Index" style="rounded=0;whiteSpace=wrap;html=1;" vertex="1" parent="1">
          <mxGeometry x="413.5" y="320" width="150" height="40" as="geometry" />
        </mxCell>
        <mxCell id="91s7g8yCsdpw_zOZH4gh-3" value="Offset" style="rounded=0;whiteSpace=wrap;html=1;" vertex="1" parent="1">
          <mxGeometry x="577" y="320" width="150" height="40" as="geometry" />
        </mxCell>
        <mxCell id="91s7g8yCsdpw_zOZH4gh-4" value="11 bits" style="text;html=1;align=center;verticalAlign=middle;whiteSpace=wrap;rounded=0;" vertex="1" parent="1">
          <mxGeometry x="140" y="370" width="60" height="30" as="geometry" />
        </mxCell>
        <mxCell id="91s7g8yCsdpw_zOZH4gh-5" value="11 bits" style="text;html=1;align=center;verticalAlign=middle;whiteSpace=wrap;rounded=0;" vertex="1" parent="1">
          <mxGeometry x="295" y="370" width="60" height="30" as="geometry" />
        </mxCell>
        <mxCell id="91s7g8yCsdpw_zOZH4gh-6" value="11 bits" style="text;html=1;align=center;verticalAlign=middle;whiteSpace=wrap;rounded=0;" vertex="1" parent="1">
          <mxGeometry x="458.5" y="370" width="60" height="30" as="geometry" />
        </mxCell>
        <mxCell id="91s7g8yCsdpw_zOZH4gh-7" value="13 bits" style="text;html=1;align=center;verticalAlign=middle;whiteSpace=wrap;rounded=0;" vertex="1" parent="1">
          <mxGeometry x="625" y="370" width="60" height="30" as="geometry" />
        </mxCell>
        <mxCell id="91s7g8yCsdpw_zOZH4gh-8" value="45" style="text;html=1;align=center;verticalAlign=middle;whiteSpace=wrap;rounded=0;" vertex="1" parent="1">
          <mxGeometry x="60" y="360" width="60" height="30" as="geometry" />
        </mxCell>
        <mxCell id="91s7g8yCsdpw_zOZH4gh-9" value="35 34" style="text;html=1;align=center;verticalAlign=middle;whiteSpace=wrap;rounded=0;" vertex="1" parent="1">
          <mxGeometry x="215" y="360" width="60" height="30" as="geometry" />
        </mxCell>
        <mxCell id="91s7g8yCsdpw_zOZH4gh-10" style="edgeStyle=orthogonalEdgeStyle;rounded=0;orthogonalLoop=1;jettySize=auto;html=1;exitX=0.5;exitY=1;exitDx=0;exitDy=0;" edge="1" parent="1" source="91s7g8yCsdpw_zOZH4gh-9" target="91s7g8yCsdpw_zOZH4gh-9">
          <mxGeometry relative="1" as="geometry" />
        </mxCell>
        <mxCell id="91s7g8yCsdpw_zOZH4gh-11" value="24 23" style="text;html=1;align=center;verticalAlign=middle;whiteSpace=wrap;rounded=0;" vertex="1" parent="1">
          <mxGeometry x="380" y="362" width="60" height="30" as="geometry" />
        </mxCell>
        <mxCell id="91s7g8yCsdpw_zOZH4gh-12" value="13 12" style="text;html=1;align=center;verticalAlign=middle;whiteSpace=wrap;rounded=0;" vertex="1" parent="1">
          <mxGeometry x="540" y="362" width="60" height="30" as="geometry" />
        </mxCell>
        <mxCell id="91s7g8yCsdpw_zOZH4gh-13" value="0" style="text;html=1;align=center;verticalAlign=middle;whiteSpace=wrap;rounded=0;" vertex="1" parent="1">
          <mxGeometry x="697" y="362" width="60" height="30" as="geometry" />
        </mxCell>
        <mxCell id="91s7g8yCsdpw_zOZH4gh-18" style="edgeStyle=orthogonalEdgeStyle;rounded=0;orthogonalLoop=1;jettySize=auto;html=1;exitX=0.25;exitY=1;exitDx=0;exitDy=0;entryX=0.5;entryY=0;entryDx=0;entryDy=0;" edge="1" parent="1" source="91s7g8yCsdpw_zOZH4gh-14" target="91s7g8yCsdpw_zOZH4gh-16">
          <mxGeometry relative="1" as="geometry" />
        </mxCell>
        <mxCell id="91s7g8yCsdpw_zOZH4gh-19" style="edgeStyle=orthogonalEdgeStyle;rounded=0;orthogonalLoop=1;jettySize=auto;html=1;exitX=0.75;exitY=1;exitDx=0;exitDy=0;entryX=0.5;entryY=0;entryDx=0;entryDy=0;" edge="1" parent="1" source="91s7g8yCsdpw_zOZH4gh-14" target="91s7g8yCsdpw_zOZH4gh-17">
          <mxGeometry relative="1" as="geometry" />
        </mxCell>
        <mxCell id="91s7g8yCsdpw_zOZH4gh-14" value="64 KB" style="rounded=0;whiteSpace=wrap;html=1;" vertex="1" parent="1">
          <mxGeometry x="143.5" y="560" width="420" height="40" as="geometry" />
        </mxCell>
        <mxCell id="91s7g8yCsdpw_zOZH4gh-22" style="edgeStyle=orthogonalEdgeStyle;rounded=0;orthogonalLoop=1;jettySize=auto;html=1;exitX=0.25;exitY=1;exitDx=0;exitDy=0;entryX=0.5;entryY=0;entryDx=0;entryDy=0;" edge="1" parent="1" source="91s7g8yCsdpw_zOZH4gh-16" target="91s7g8yCsdpw_zOZH4gh-20">
          <mxGeometry relative="1" as="geometry" />
        </mxCell>
        <mxCell id="91s7g8yCsdpw_zOZH4gh-23" style="edgeStyle=orthogonalEdgeStyle;rounded=0;orthogonalLoop=1;jettySize=auto;html=1;exitX=0.75;exitY=1;exitDx=0;exitDy=0;entryX=0.5;entryY=0;entryDx=0;entryDy=0;" edge="1" parent="1" source="91s7g8yCsdpw_zOZH4gh-16" target="91s7g8yCsdpw_zOZH4gh-21">
          <mxGeometry relative="1" as="geometry" />
        </mxCell>
        <mxCell id="91s7g8yCsdpw_zOZH4gh-16" value="32 KB" style="rounded=0;whiteSpace=wrap;html=1;" vertex="1" parent="1">
          <mxGeometry x="143.5" y="620" width="206.5" height="40" as="geometry" />
        </mxCell>
        <mxCell id="91s7g8yCsdpw_zOZH4gh-17" value="32 KB" style="rounded=0;whiteSpace=wrap;html=1;" vertex="1" parent="1">
          <mxGeometry x="357" y="620" width="206.5" height="40" as="geometry" />
        </mxCell>
        <mxCell id="91s7g8yCsdpw_zOZH4gh-26" style="edgeStyle=orthogonalEdgeStyle;rounded=0;orthogonalLoop=1;jettySize=auto;html=1;exitX=0.25;exitY=1;exitDx=0;exitDy=0;entryX=0.5;entryY=0;entryDx=0;entryDy=0;" edge="1" parent="1" source="91s7g8yCsdpw_zOZH4gh-20" target="91s7g8yCsdpw_zOZH4gh-24">
          <mxGeometry relative="1" as="geometry" />
        </mxCell>
        <mxCell id="91s7g8yCsdpw_zOZH4gh-27" style="edgeStyle=orthogonalEdgeStyle;rounded=0;orthogonalLoop=1;jettySize=auto;html=1;exitX=0.75;exitY=1;exitDx=0;exitDy=0;entryX=0.5;entryY=0;entryDx=0;entryDy=0;" edge="1" parent="1" source="91s7g8yCsdpw_zOZH4gh-20" target="91s7g8yCsdpw_zOZH4gh-25">
          <mxGeometry relative="1" as="geometry" />
        </mxCell>
        <mxCell id="91s7g8yCsdpw_zOZH4gh-20" value="16 KB" style="rounded=0;whiteSpace=wrap;html=1;" vertex="1" parent="1">
          <mxGeometry x="143.5" y="680" width="96.5" height="40" as="geometry" />
        </mxCell>
        <mxCell id="91s7g8yCsdpw_zOZH4gh-21" value="16 KB" style="rounded=0;whiteSpace=wrap;html=1;" vertex="1" parent="1">
          <mxGeometry x="253.5" y="680" width="96.5" height="40" as="geometry" />
        </mxCell>
        <mxCell id="91s7g8yCsdpw_zOZH4gh-30" style="edgeStyle=orthogonalEdgeStyle;rounded=0;orthogonalLoop=1;jettySize=auto;html=1;exitX=0.25;exitY=1;exitDx=0;exitDy=0;entryX=0.5;entryY=0;entryDx=0;entryDy=0;" edge="1" parent="1" source="91s7g8yCsdpw_zOZH4gh-24" target="91s7g8yCsdpw_zOZH4gh-28">
          <mxGeometry relative="1" as="geometry" />
        </mxCell>
        <mxCell id="91s7g8yCsdpw_zOZH4gh-31" style="edgeStyle=orthogonalEdgeStyle;rounded=0;orthogonalLoop=1;jettySize=auto;html=1;exitX=0.75;exitY=1;exitDx=0;exitDy=0;entryX=0.5;entryY=0;entryDx=0;entryDy=0;" edge="1" parent="1" source="91s7g8yCsdpw_zOZH4gh-24" target="91s7g8yCsdpw_zOZH4gh-29">
          <mxGeometry relative="1" as="geometry" />
        </mxCell>
        <mxCell id="91s7g8yCsdpw_zOZH4gh-24" value="8KB" style="rounded=0;whiteSpace=wrap;html=1;" vertex="1" parent="1">
          <mxGeometry x="143.5" y="740" width="46.5" height="40" as="geometry" />
        </mxCell>
        <mxCell id="91s7g8yCsdpw_zOZH4gh-25" value="8KB" style="rounded=0;whiteSpace=wrap;html=1;fillColor=#f8cecc;strokeColor=#b85450;" vertex="1" parent="1">
          <mxGeometry x="193.5" y="740" width="46.5" height="40" as="geometry" />
        </mxCell>
        <mxCell id="91s7g8yCsdpw_zOZH4gh-28" value="&lt;font style=&quot;font-size: 7px;&quot;&gt;4KB&lt;/font&gt;" style="rounded=0;whiteSpace=wrap;html=1;fillColor=#d5e8d4;strokeColor=#82b366;" vertex="1" parent="1">
          <mxGeometry x="143.5" y="800" width="20" height="40" as="geometry" />
        </mxCell>
        <mxCell id="91s7g8yCsdpw_zOZH4gh-33" style="edgeStyle=orthogonalEdgeStyle;rounded=0;orthogonalLoop=1;jettySize=auto;html=1;exitX=0.5;exitY=1;exitDx=0;exitDy=0;entryX=0.25;entryY=0;entryDx=0;entryDy=0;" edge="1" parent="1" source="91s7g8yCsdpw_zOZH4gh-29" target="91s7g8yCsdpw_zOZH4gh-32">
          <mxGeometry relative="1" as="geometry" />
        </mxCell>
        <mxCell id="91s7g8yCsdpw_zOZH4gh-29" value="&lt;font style=&quot;font-size: 7px;&quot;&gt;4KB&lt;/font&gt;" style="rounded=0;whiteSpace=wrap;html=1;" vertex="1" parent="1">
          <mxGeometry x="170" y="800" width="20" height="40" as="geometry" />
        </mxCell>
        <mxCell id="91s7g8yCsdpw_zOZH4gh-32" value="&lt;font style=&quot;font-size: 8px;&quot;&gt;2KB&lt;/font&gt;" style="rounded=0;whiteSpace=wrap;html=1;fillColor=#dae8fc;strokeColor=#6c8ebf;" vertex="1" parent="1">
          <mxGeometry x="170" y="850" width="30" height="20" as="geometry" />
        </mxCell>
        <mxCell id="91s7g8yCsdpw_zOZH4gh-34" value="&lt;font style=&quot;font-size: 8px;&quot;&gt;2KB&lt;/font&gt;" style="rounded=0;whiteSpace=wrap;html=1;" vertex="1" parent="1">
          <mxGeometry x="165" y="880" width="30" height="20" as="geometry" />
        </mxCell>
      </root>
    </mxGraphModel>
  </diagram>
</mxfile>
